<svg width="100%" height="100%" viewBox="0 0 33 33" fill="none" xmlns="http://www.w3.org/2000/svg">
<circle opacity="0.5" cx="13" cy="20" r="8" fill="#7987FF"/>
<circle opacity="0.5" cx="13" cy="20" r="12" stroke="#AEB5F2" stroke-opacity="0.7" stroke-width="1.5"/>
<path fill-rule="evenodd" clip-rule="evenodd" d="M28.2848 8.83369L31.3736 5.74486C32.5109 4.60759 32.5109 2.7637 31.3736 1.62643C30.2363 0.489154 28.3924 0.489153 27.2552 1.62643L24.1663 4.71526C23.5977 5.28389 22.6758 5.28389 22.1071 4.71525C21.5385 4.14662 20.6165 4.14662 20.0479 4.71525C19.4793 5.28389 19.4793 6.20583 20.0479 6.77447L21.062 7.78853C21.062 7.78853 21.062 7.78855 21.062 7.78856L12.2215 16.6291C12.1253 16.7252 12.0572 16.8456 12.0242 16.9775L10.9946 21.0959C10.9307 21.3515 11.0056 21.6219 11.1919 21.8082C11.3781 21.9944 11.6485 22.0693 11.9041 22.0054L16.0225 20.9758C16.1544 20.9429 16.2748 20.8747 16.3709 20.7785L25.2115 11.938C25.2115 11.938 25.2115 11.938 25.2115 11.938L26.2256 12.9521C26.7942 13.5208 27.7161 13.5208 28.2848 12.9521C28.8534 12.3835 28.8534 11.4615 28.2848 10.8929C27.7161 10.3243 27.7161 9.40232 28.2848 8.83369ZM15.0718 19.6673C14.0215 19.9299 13.0701 18.9785 13.3327 17.9282C13.3957 17.676 13.5261 17.4457 13.7099 17.2619L20.5782 10.3936C21.1383 9.83357 22.0463 9.83357 22.6064 10.3936C23.1664 10.9537 23.1664 11.8617 22.6064 12.4218L15.7381 19.2901C15.5543 19.4739 15.324 19.6043 15.0718 19.6673Z" fill="#15295A"/>
</svg>
