<svg viewBox="0 0 480 480" fill="none" xmlns="http://www.w3.org/2000/svg">
<path d="M0 0H480V480H0V0Z" fill="#DFF0FE"/>
<g filter="url(#filter0_d)">
<path d="M63 201C63 187.745 73.7452 177 87 177H393C406.255 177 417 187.745 417 201V249C417 262.255 406.255 273 393 273H87C73.7452 273 63 262.255 63 249V201Z" fill="#64BCFF"/>
</g>
<path d="M116.497 215.484H124.2V237H127.919V215.484H135.634V212.273H116.497V215.484ZM143.183 225.989C143.183 223.031 145.055 221.34 147.627 221.34C150.114 221.34 151.599 222.922 151.599 225.638V237H155.209V225.204C155.209 220.58 152.673 218.213 148.858 218.213C145.972 218.213 144.234 219.469 143.365 221.473H143.135V212.273H139.573V237H143.183V225.989ZM160.026 237H163.637V218.455H160.026V237ZM161.85 215.593C163.093 215.593 164.132 214.627 164.132 213.444C164.132 212.261 163.093 211.283 161.85 211.283C160.594 211.283 159.568 212.261 159.568 213.444C159.568 214.627 160.594 215.593 161.85 215.593ZM182.39 222.982C181.642 220.097 179.384 218.213 175.375 218.213C171.186 218.213 168.216 220.423 168.216 223.707C168.216 226.339 169.809 228.089 173.287 228.862L176.426 229.55C178.213 229.949 179.046 230.746 179.046 231.905C179.046 233.342 177.512 234.464 175.146 234.464C172.985 234.464 171.596 233.535 171.162 231.712L167.672 232.243C168.276 235.527 171.005 237.374 175.17 237.374C179.65 237.374 182.752 234.996 182.752 231.639C182.752 229.019 181.086 227.401 177.681 226.616L174.735 225.94C172.695 225.457 171.814 224.769 171.826 223.513C171.814 222.089 173.359 221.075 175.412 221.075C177.657 221.075 178.696 222.318 179.118 223.562L182.39 222.982ZM195.72 237H199.33V218.455H195.72V237ZM197.543 215.593C198.787 215.593 199.825 214.627 199.825 213.444C199.825 212.261 198.787 211.283 197.543 211.283C196.287 211.283 195.261 212.261 195.261 213.444C195.261 214.627 196.287 215.593 197.543 215.593ZM218.084 222.982C217.335 220.097 215.077 218.213 211.069 218.213C206.879 218.213 203.909 220.423 203.909 223.707C203.909 226.339 205.503 228.089 208.98 228.862L212.119 229.55C213.906 229.949 214.739 230.746 214.739 231.905C214.739 233.342 213.206 234.464 210.839 234.464C208.678 234.464 207.29 233.535 206.855 231.712L203.366 232.243C203.969 235.527 206.698 237.374 210.863 237.374C215.343 237.374 218.446 234.996 218.446 231.639C218.446 229.019 216.78 227.401 213.375 226.616L210.429 225.94C208.388 225.457 207.507 224.769 207.519 223.513C207.507 222.089 209.052 221.075 211.105 221.075C213.351 221.075 214.389 222.318 214.812 223.562L218.084 222.982ZM236.81 237.411C239.877 237.411 241.604 235.853 242.292 234.464H242.437V237H245.962V224.685C245.962 219.288 241.712 218.213 238.766 218.213C235.41 218.213 232.319 219.565 231.111 222.946L234.504 223.719C235.035 222.403 236.388 221.135 238.814 221.135C241.145 221.135 242.34 222.354 242.34 224.455V224.54C242.34 225.856 240.988 225.832 237.655 226.218C234.142 226.629 230.544 227.546 230.544 231.76C230.544 235.406 233.285 237.411 236.81 237.411ZM237.595 234.513C235.555 234.513 234.081 233.595 234.081 231.808C234.081 229.876 235.796 229.188 237.885 228.911C239.056 228.754 241.833 228.44 242.352 227.92V230.311C242.352 232.509 240.601 234.513 237.595 234.513ZM260.058 237H263.584V234.114H263.886C264.538 235.298 265.866 237.362 269.247 237.362C273.738 237.362 276.998 233.764 276.998 227.763C276.998 221.751 273.69 218.213 269.21 218.213C265.769 218.213 264.526 220.314 263.886 221.461H263.669V212.273H260.058V237ZM263.596 227.727C263.596 223.852 265.286 221.28 268.438 221.28C271.71 221.28 273.352 224.045 273.352 227.727C273.352 231.446 271.661 234.283 268.438 234.283C265.335 234.283 263.596 231.627 263.596 227.727ZM292.8 229.309C292.812 232.46 290.469 233.957 288.441 233.957C286.207 233.957 284.662 232.339 284.662 229.816V218.455H281.052V230.251C281.052 234.851 283.575 237.241 287.137 237.241C289.926 237.241 291.822 235.768 292.679 233.788H292.872V237H296.422V218.455H292.8V229.309ZM309.93 218.455H306.126V214.011H302.516V218.455H299.8V221.352H302.516V232.303C302.504 235.672 305.076 237.302 307.925 237.241C309.072 237.229 309.845 237.012 310.268 236.855L309.616 233.873C309.374 233.921 308.927 234.03 308.348 234.03C307.177 234.03 306.126 233.643 306.126 231.555V221.352H309.93V218.455ZM322.58 218.455H318.777V214.011H315.167V218.455H312.45V221.352H315.167V232.303C315.154 235.672 317.726 237.302 320.576 237.241C321.723 237.229 322.495 237.012 322.918 236.855L322.266 233.873C322.025 233.921 321.578 234.03 320.998 234.03C319.827 234.03 318.777 233.643 318.777 231.555V221.352H322.58V218.455ZM334.186 237.374C339.414 237.374 342.831 233.547 342.831 227.812C342.831 222.04 339.414 218.213 334.186 218.213C328.958 218.213 325.541 222.04 325.541 227.812C325.541 233.547 328.958 237.374 334.186 237.374ZM334.198 234.344C330.781 234.344 329.187 231.362 329.187 227.8C329.187 224.25 330.781 221.232 334.198 221.232C337.591 221.232 339.184 224.25 339.184 227.8C339.184 231.362 337.591 234.344 334.198 234.344ZM350.471 225.989C350.471 223.031 352.282 221.34 354.793 221.34C357.244 221.34 358.729 222.946 358.729 225.638V237H362.339V225.204C362.339 220.616 359.816 218.213 356.025 218.213C353.235 218.213 351.412 219.505 350.555 221.473H350.326V218.455H346.86V237H350.471V225.989Z" fill="white"/>
<g filter="url(#filter1_dd)">
<circle cx="82" cy="196" r="62" fill="url(#paint0_linear)"/>
<circle cx="82" cy="196" r="62.75" stroke="#242447" stroke-opacity="0.1" stroke-width="1.5"/>
</g>
<mask id="mask0" mask-type="alpha" maskUnits="userSpaceOnUse" x="26" y="140" width="112" height="112">
<circle cx="82.0004" cy="196" r="55.641" fill="#9F9F9F"/>
</mask>
<g mask="url(#mask0)">
<rect x="58.1543" y="134" width="9.53846" height="9.53846" fill="#D7DEE4"/>
<rect opacity="0.9" x="67.6919" y="134" width="9.53846" height="9.53846" fill="#D7DEE4"/>
<rect opacity="0.8" x="77.2305" y="134" width="9.53846" height="9.53846" fill="#D7DEE4"/>
<rect opacity="0.7" x="86.7695" y="134" width="9.53846" height="9.53846" fill="#D7DEE4"/>
<rect opacity="0.8" x="20" y="172.154" width="9.53846" height="9.53846" fill="#D7DEE4"/>
<rect opacity="0.6" x="20" y="181.692" width="9.53846" height="9.53846" fill="#D7DEE4"/>
<rect opacity="0.4" x="20" y="191.231" width="9.53846" height="9.53846" fill="#D7DEE4"/>
<rect opacity="0.9" x="20" y="200.769" width="9.53846" height="9.53846" fill="#D7DEE4"/>
<rect opacity="0.7" x="20" y="210.308" width="9.53846" height="9.53846" fill="#D7DEE4"/>
<rect opacity="0.6" x="29.5391" y="153.077" width="9.53846" height="9.53846" fill="#D7DEE4"/>
<rect opacity="0.8" x="29.5391" y="162.615" width="9.53846" height="9.53846" fill="#D7DEE4"/>
<rect opacity="0.9" x="29.5391" y="172.154" width="9.53846" height="9.53846" fill="#D7DEE4"/>
<rect x="29.5391" y="181.692" width="9.53846" height="9.53846" fill="#D7DEE4"/>
<rect opacity="0.9" x="29.5391" y="191.231" width="9.53846" height="9.53846" fill="#D7DEE4"/>
<rect opacity="0.7" x="29.5391" y="200.769" width="9.53846" height="9.53846" fill="#D7DEE4"/>
<rect opacity="0.3" x="29.5391" y="210.308" width="9.53846" height="9.53846" fill="#53B7FF"/>
<rect opacity="0.5" x="29.5391" y="219.846" width="9.53846" height="9.53846" fill="#53B7FF"/>
<rect opacity="0.4" x="29.5391" y="229.385" width="9.53846" height="9.53846" fill="#53B7FF"/>
<rect opacity="0.7" x="39.0762" y="143.539" width="9.53846" height="9.53846" fill="#D7DEE4"/>
<rect opacity="0.6" x="39.0762" y="153.077" width="9.53846" height="9.53846" fill="#D7DEE4"/>
<rect opacity="0.7" x="39.0762" y="162.615" width="9.53846" height="9.53846" fill="#D7DEE4"/>
<rect opacity="0.8" x="39.0762" y="172.154" width="9.53846" height="9.53846" fill="#D7DEE4"/>
<rect opacity="0.9" x="39.0762" y="181.692" width="9.53846" height="9.53846" fill="#D7DEE4"/>
<rect opacity="0.4" x="39.0762" y="191.231" width="9.53846" height="9.53846" fill="#D7DEE4"/>
<rect opacity="0.5" x="39.0762" y="200.769" width="9.53846" height="9.53846" fill="#53B7FF"/>
<rect opacity="0.9" x="39.0762" y="210.308" width="9.53846" height="9.53846" fill="#53B7FF"/>
<rect opacity="0.8" x="39.0762" y="219.846" width="9.53846" height="9.53846" fill="#53B7FF"/>
<rect opacity="0.8" x="39.0762" y="229.385" width="9.53846" height="9.53846" fill="#53B7FF"/>
<rect opacity="0.9" x="39.0762" y="238.923" width="9.53846" height="9.53846" fill="#53B7FF"/>
<rect opacity="0.8" x="48.6152" y="143.539" width="9.53846" height="9.53846" fill="#D7DEE4"/>
<rect x="48.6152" y="153.077" width="9.53846" height="9.53846" fill="#D7DEE4"/>
<rect opacity="0.6" x="48.6152" y="162.615" width="9.53846" height="9.53846" fill="#D7DEE4"/>
<rect opacity="0.7" x="48.6152" y="172.154" width="9.53846" height="9.53846" fill="#D7DEE4"/>
<rect opacity="0.4" x="48.6152" y="181.692" width="9.53846" height="9.53846" fill="#53B7FF"/>
<rect opacity="0.8" x="48.6152" y="191.231" width="9.53846" height="9.53846" fill="#53B7FF"/>
<rect opacity="0.6" x="48.6152" y="200.769" width="9.53846" height="9.53846" fill="#53B7FF"/>
<rect opacity="0.8" x="48.6152" y="210.308" width="9.53846" height="9.53846" fill="#53B7FF"/>
<rect opacity="0.9" x="48.6152" y="219.846" width="9.53846" height="9.53846" fill="#53B7FF"/>
<rect opacity="0.7" x="48.6152" y="229.385" width="9.53846" height="9.53846" fill="#53B7FF"/>
<rect opacity="0.5" x="48.6152" y="238.923" width="9.53846" height="9.53846" fill="#53B7FF"/>
<rect opacity="0.8" x="58.1543" y="143.539" width="9.53846" height="9.53846" fill="#D7DEE4"/>
<rect opacity="0.6" x="58.1543" y="153.077" width="9.53846" height="9.53846" fill="#D7DEE4"/>
<rect opacity="0.5" x="58.1543" y="162.615" width="9.53846" height="9.53846" fill="#D7DEE4"/>
<rect opacity="0.6" x="58.1543" y="172.154" width="9.53846" height="9.53846" fill="#53B7FF"/>
<rect opacity="0.8" x="58.1543" y="181.692" width="9.53846" height="9.53846" fill="#53B7FF"/>
<rect opacity="0.9" x="58.1543" y="191.231" width="9.53846" height="9.53846" fill="#53B7FF"/>
<rect opacity="0.8" x="58.1543" y="200.769" width="9.53846" height="9.53846" fill="#53B7FF"/>
<rect opacity="0.6" x="58.1543" y="210.308" width="9.53846" height="9.53846" fill="#53B7FF"/>
<rect opacity="0.5" x="58.1543" y="219.846" width="9.53846" height="9.53846" fill="#53B7FF"/>
<rect opacity="0.4" x="58.1543" y="229.385" width="9.53846" height="9.53846" fill="#53B7FF"/>
<rect opacity="0.2" x="58.1543" y="238.923" width="9.53846" height="9.53846" fill="#53B7FF"/>
<rect opacity="0.6" x="58.1543" y="248.461" width="9.53846" height="9.53846" fill="#53B7FF"/>
<rect opacity="0.7" x="67.6919" y="143.539" width="9.53846" height="9.53846" fill="#D7DEE4"/>
<rect opacity="0.5" x="67.6919" y="153.077" width="9.53846" height="9.53846" fill="#D7DEE4"/>
<rect opacity="0.9" x="67.6919" y="162.615" width="9.53846" height="9.53846" fill="#53B7FF"/>
<rect opacity="0.7" x="67.6919" y="172.154" width="9.53846" height="9.53846" fill="#53B7FF"/>
<rect opacity="0.6" x="67.6919" y="181.692" width="9.53846" height="9.53846" fill="#53B7FF"/>
<rect opacity="0.5" x="67.6919" y="191.231" width="9.53846" height="9.53846" fill="#53B7FF"/>
<rect opacity="0.7" x="67.6919" y="200.769" width="9.53846" height="9.53846" fill="#53B7FF"/>
<rect opacity="0.8" x="67.6919" y="210.308" width="9.53846" height="9.53846" fill="#53B7FF"/>
<rect opacity="0.9" x="67.6919" y="219.846" width="9.53846" height="9.53846" fill="#53B7FF"/>
<rect opacity="0.6" x="67.6919" y="229.385" width="9.53846" height="9.53846" fill="#53B7FF"/>
<rect opacity="0.4" x="67.6919" y="238.923" width="9.53846" height="9.53846" fill="#53B7FF"/>
<rect opacity="0.3" x="67.6919" y="248.461" width="9.53846" height="9.53846" fill="#53B7FF"/>
<rect opacity="0.6" x="77.2305" y="143.539" width="9.53846" height="9.53846" fill="#D7DEE4"/>
<rect opacity="0.6" x="77.2305" y="153.077" width="9.53846" height="9.53846" fill="#53B7FF"/>
<rect opacity="0.8" x="77.2305" y="162.615" width="9.53846" height="9.53846" fill="#53B7FF"/>
<rect opacity="0.6" x="77.2305" y="172.154" width="9.53846" height="9.53846" fill="#53B7FF"/>
<rect opacity="0.5" x="77.2305" y="181.692" width="9.53846" height="9.53846" fill="#53B7FF"/>
<rect opacity="0.6" x="77.2305" y="191.231" width="9.53846" height="9.53846" fill="#53B7FF"/>
<rect opacity="0.8" x="77.2305" y="200.769" width="9.53846" height="9.53846" fill="#53B7FF"/>
<rect opacity="0.9" x="77.2305" y="210.308" width="9.53846" height="9.53846" fill="#53B7FF"/>
<rect opacity="0.7" x="77.2305" y="219.846" width="9.53846" height="9.53846" fill="#53B7FF"/>
<rect opacity="0.5" x="77.2305" y="229.385" width="9.53846" height="9.53846" fill="#53B7FF"/>
<rect opacity="0.7" x="77.2305" y="238.923" width="9.53846" height="9.53846" fill="#53B7FF"/>
<rect opacity="0.8" x="77.2305" y="248.461" width="9.53846" height="9.53846" fill="#53B7FF"/>
<rect opacity="0.8" x="86.7695" y="143.539" width="9.53846" height="9.53846" fill="#53B7FF"/>
<rect opacity="0.6" x="86.7695" y="153.077" width="9.53846" height="9.53846" fill="#53B7FF"/>
<rect opacity="0.5" x="86.7695" y="162.615" width="9.53846" height="9.53846" fill="#53B7FF"/>
<rect opacity="0.7" x="86.7695" y="172.154" width="9.53846" height="9.53846" fill="#53B7FF"/>
<rect opacity="0.6" x="86.7695" y="181.692" width="9.53846" height="9.53846" fill="#53B7FF"/>
<rect opacity="0.5" x="86.7695" y="191.231" width="9.53846" height="9.53846" fill="#53B7FF"/>
<rect opacity="0.4" x="86.7695" y="200.769" width="9.53846" height="9.53846" fill="#53B7FF"/>
<rect opacity="0.5" x="86.7695" y="210.308" width="9.53846" height="9.53846" fill="#53B7FF"/>
<rect opacity="0.6" x="86.7695" y="219.846" width="9.53846" height="9.53846" fill="#53B7FF"/>
<rect opacity="0.7" x="86.7695" y="229.385" width="9.53846" height="9.53846" fill="#53B7FF"/>
<rect opacity="0.8" x="86.7695" y="238.923" width="9.53846" height="9.53846" fill="#53B7FF"/>
<rect opacity="0.9" x="86.7695" y="248.461" width="9.53846" height="9.53846" fill="#53B7FF"/>
<rect opacity="0.5" x="96.3081" y="153.077" width="9.53846" height="9.53846" fill="#53B7FF"/>
<rect opacity="0.9" x="96.3081" y="143.539" width="9.53846" height="9.53846" fill="#53B7FF"/>
<rect opacity="0.6" x="96.3081" y="162.615" width="9.53846" height="9.53846" fill="#53B7FF"/>
<rect opacity="0.8" x="96.3081" y="172.154" width="9.53846" height="9.53846" fill="#53B7FF"/>
<rect opacity="0.9" x="96.3081" y="181.692" width="9.53846" height="9.53846" fill="#53B7FF"/>
<rect opacity="0.7" x="96.3081" y="191.231" width="9.53846" height="9.53846" fill="#53B7FF"/>
<rect opacity="0.6" x="96.3081" y="200.769" width="9.53846" height="9.53846" fill="#53B7FF"/>
<rect opacity="0.7" x="96.3081" y="210.308" width="9.53846" height="9.53846" fill="#53B7FF"/>
<rect opacity="0.8" x="96.3081" y="219.846" width="9.53846" height="9.53846" fill="#53B7FF"/>
<rect opacity="0.9" x="96.3081" y="229.385" width="9.53846" height="9.53846" fill="#53B7FF"/>
<rect opacity="0.8" x="96.3081" y="238.923" width="9.53846" height="9.53846" fill="#53B7FF"/>
<rect opacity="0.2" x="96.3081" y="248.461" width="9.53846" height="9.53846" fill="#53B7FF"/>
<rect width="9.53846" height="9.53846" transform="matrix(-1 0 0 1 115.385 134)" fill="#6F6CFF"/>
<rect opacity="0.2" width="9.53846" height="9.53846" transform="matrix(-1 0 0 1 96.3081 134)" fill="#D7DEE4"/>
<rect opacity="0.4" width="9.53846" height="9.53846" transform="matrix(-1 0 0 1 86.7695 134)" fill="#D7DEE4"/>
<rect width="9.53846" height="9.53846" transform="matrix(-1 0 0 1 77.2305 134)" fill="#D7DEE4"/>
<rect opacity="0.6" width="9.53846" height="9.53846" transform="matrix(-1 0 0 1 144 153.077)" fill="#53B7FF"/>
<rect opacity="0.8" width="9.53846" height="9.53846" transform="matrix(-1 0 0 1 144 162.615)" fill="#53B7FF"/>
<rect opacity="0.9" width="9.53846" height="9.53846" transform="matrix(-1 0 0 1 144 172.154)" fill="#53B7FF"/>
<rect width="9.53846" height="9.53846" transform="matrix(-1 0 0 1 144 181.692)" fill="#53B7FF"/>
<rect opacity="0.9" width="9.53846" height="9.53846" transform="matrix(-1 0 0 1 144 191.231)" fill="#53B7FF"/>
<rect opacity="0.7" width="9.53846" height="9.53846" transform="matrix(-1 0 0 1 144 200.769)" fill="#53B7FF"/>
<rect opacity="0.6" width="9.53846" height="9.53846" transform="matrix(-1 0 0 1 144 210.308)" fill="#53B7FF"/>
<rect opacity="0.4" width="9.53846" height="9.53846" transform="matrix(-1 0 0 1 144 219.846)" fill="#53B7FF"/>
<rect opacity="0.4" width="9.53846" height="9.53846" transform="matrix(-1 0 0 1 144 229.385)" fill="#53B7FF"/>
<rect opacity="0.7" width="9.53846" height="9.53846" transform="matrix(-1 0 0 1 134.461 143.539)" fill="#53B7FF"/>
<rect opacity="0.6" width="9.53846" height="9.53846" transform="matrix(-1 0 0 1 134.461 153.077)" fill="#53B7FF"/>
<rect opacity="0.7" width="9.53846" height="9.53846" transform="matrix(-1 0 0 1 134.461 162.615)" fill="#53B7FF"/>
<rect opacity="0.8" width="9.53846" height="9.53846" transform="matrix(-1 0 0 1 134.461 172.154)" fill="#53B7FF"/>
<rect opacity="0.9" width="9.53846" height="9.53846" transform="matrix(-1 0 0 1 134.461 181.692)" fill="#53B7FF"/>
<rect opacity="0.4" width="9.53846" height="9.53846" transform="matrix(-1 0 0 1 134.461 191.231)" fill="#53B7FF"/>
<rect opacity="0.8" width="9.53846" height="9.53846" transform="matrix(-1 0 0 1 134.461 200.769)" fill="#53B7FF"/>
<rect opacity="0.9" width="9.53846" height="9.53846" transform="matrix(-1 0 0 1 134.461 210.308)" fill="#53B7FF"/>
<rect opacity="0.8" width="9.53846" height="9.53846" transform="matrix(-1 0 0 1 134.461 219.846)" fill="#53B7FF"/>
<rect opacity="0.8" width="9.53846" height="9.53846" transform="matrix(-1 0 0 1 134.461 229.385)" fill="#53B7FF"/>
<rect opacity="0.9" width="9.53846" height="9.53846" transform="matrix(-1 0 0 1 134.461 238.923)" fill="#53B7FF"/>
<rect opacity="0.8" width="9.53846" height="9.53846" transform="matrix(-1 0 0 1 124.924 143.539)" fill="#53B7FF"/>
<rect opacity="0.7" width="9.53846" height="9.53846" transform="matrix(-1 0 0 1 124.924 153.077)" fill="#53B7FF"/>
<rect opacity="0.6" width="9.53846" height="9.53846" transform="matrix(-1 0 0 1 124.924 162.615)" fill="#53B7FF"/>
<rect opacity="0.7" width="9.53846" height="9.53846" transform="matrix(-1 0 0 1 124.924 172.154)" fill="#53B7FF"/>
<rect opacity="0.9" width="9.53846" height="9.53846" transform="matrix(-1 0 0 1 124.924 181.692)" fill="#53B7FF"/>
<rect opacity="0.8" width="9.53846" height="9.53846" transform="matrix(-1 0 0 1 124.924 191.231)" fill="#53B7FF"/>
<rect opacity="0.6" width="9.53846" height="9.53846" transform="matrix(-1 0 0 1 124.924 200.769)" fill="#53B7FF"/>
<rect opacity="0.8" width="9.53846" height="9.53846" transform="matrix(-1 0 0 1 124.924 210.308)" fill="#53B7FF"/>
<rect opacity="0.9" width="9.53846" height="9.53846" transform="matrix(-1 0 0 1 124.924 219.846)" fill="#53B7FF"/>
<rect opacity="0.7" width="9.53846" height="9.53846" transform="matrix(-1 0 0 1 124.924 229.385)" fill="#53B7FF"/>
<rect opacity="0.5" width="9.53846" height="9.53846" transform="matrix(-1 0 0 1 124.924 238.923)" fill="#53B7FF"/>
<rect opacity="0.8" width="9.53846" height="9.53846" transform="matrix(-1 0 0 1 115.385 143.539)" fill="#53B7FF"/>
<rect opacity="0.6" width="9.53846" height="9.53846" transform="matrix(-1 0 0 1 115.385 153.077)" fill="#53B7FF"/>
<rect opacity="0.5" width="9.53846" height="9.53846" transform="matrix(-1 0 0 1 115.385 162.615)" fill="#53B7FF"/>
<rect opacity="0.8" width="9.53846" height="9.53846" transform="matrix(-1 0 0 1 115.385 172.154)" fill="#53B7FF"/>
<rect opacity="0.7" width="9.53846" height="9.53846" transform="matrix(-1 0 0 1 115.385 181.692)" fill="#53B7FF"/>
<rect opacity="0.9" width="9.53846" height="9.53846" transform="matrix(-1 0 0 1 115.385 191.231)" fill="#53B7FF"/>
<rect opacity="0.8" width="9.53846" height="9.53846" transform="matrix(-1 0 0 1 115.385 200.769)" fill="#53B7FF"/>
<rect opacity="0.6" width="9.53846" height="9.53846" transform="matrix(-1 0 0 1 115.385 210.308)" fill="#53B7FF"/>
<rect opacity="0.5" width="9.53846" height="9.53846" transform="matrix(-1 0 0 1 115.385 219.846)" fill="#53B7FF"/>
<rect opacity="0.4" width="9.53846" height="9.53846" transform="matrix(-1 0 0 1 115.385 229.385)" fill="#53B7FF"/>
<rect opacity="0.2" width="9.53846" height="9.53846" transform="matrix(-1 0 0 1 115.385 238.923)" fill="#53B7FF"/>
<rect opacity="0.6" width="9.53846" height="9.53846" transform="matrix(-1 0 0 1 115.385 248.461)" fill="#53B7FF"/>
<circle cx="82.0004" cy="196" r="55.641" fill="#6F6CFF" fill-opacity="0.01"/>
<circle cx="82.0004" cy="196" r="54.891" stroke="black" stroke-opacity="0.07" stroke-width="1.5"/>
</g>
<path d="M44 205V370C44 378.837 51.1634 386 60 386H165" stroke="#FF6E6E" stroke-width="1.5" stroke-linecap="round" stroke-linejoin="round" stroke-dasharray="1 5"/>
<circle cx="44" cy="205" r="5" fill="#FF6F6F" stroke="white" stroke-width="2"/>
<g filter="url(#filter2_dd)">
<path d="M173 370C173 365.582 176.582 362 181 362H348C352.418 362 356 365.582 356 370V402C356 406.418 352.418 410 348 410H181C176.582 410 173 406.418 173 402V370Z" fill="#2E3544"/>
</g>
<path d="M226.976 392.18C228.956 392.18 230.27 390.776 230.27 388.508V385.61C230.27 383.324 228.974 381.92 226.976 381.92C225.5 381.92 224.474 382.712 224.294 383.99H224.24L224.276 381.74V378.86H222.656V392H224.276V390.11H224.294C224.456 391.406 225.482 392.18 226.976 392.18ZM226.436 390.776C225.104 390.776 224.276 389.894 224.276 388.4V385.7C224.276 384.206 225.104 383.324 226.436 383.324C227.804 383.324 228.65 384.17 228.65 385.7V388.4C228.65 389.93 227.804 390.776 226.436 390.776ZM234.691 395.24H237.823C239.767 395.24 240.919 394.142 240.919 392.36V382.1H239.317V383.99H239.299C239.173 382.712 238.165 381.92 236.671 381.92C234.637 381.92 233.377 383.342 233.377 385.592V387.68C233.377 389.948 234.637 391.37 236.671 391.37C238.165 391.37 239.173 390.578 239.299 389.3H239.335L239.299 391.1V392.36C239.299 393.314 238.849 393.764 237.841 393.764H234.691V395.24ZM237.157 389.966C235.789 389.966 234.997 389.12 234.997 387.59V385.7C234.997 384.17 235.789 383.324 237.157 383.324C238.489 383.324 239.317 384.206 239.317 385.7V387.59C239.317 389.084 238.489 389.966 237.157 389.966ZM245.106 386.78H250.866V385.34H245.106V386.78ZM259.355 392.18C261.335 392.18 262.649 390.776 262.649 388.508V385.61C262.649 383.324 261.353 381.92 259.355 381.92C257.879 381.92 256.853 382.712 256.673 383.99H256.619L256.655 381.74V378.86H255.035V392H256.655V390.11H256.673C256.835 391.406 257.861 392.18 259.355 392.18ZM258.815 390.776C257.483 390.776 256.655 389.894 256.655 388.4V385.7C256.655 384.206 257.483 383.324 258.815 383.324C260.183 383.324 261.029 384.17 261.029 385.7V388.4C261.029 389.93 260.183 390.776 258.815 390.776ZM271.012 392H274.072V390.524H271.012C270.238 390.524 269.752 390.02 269.752 389.21V378.86H264.712V380.336H268.132V389.21C268.132 390.902 269.266 392 271.012 392ZM280.347 392.18C282.633 392.18 284.145 390.722 284.145 388.4V382.1H282.525V388.4C282.525 389.894 281.697 390.758 280.347 390.758C279.015 390.758 278.205 389.894 278.205 388.4V382.1H276.585V388.4C276.585 390.722 278.061 392.18 280.347 392.18ZM291.158 392.18C293.246 392.18 294.776 391.136 294.992 389.48H293.372C293.192 390.362 292.4 390.812 291.158 390.812C289.682 390.812 288.872 389.966 288.872 388.4V387.446H295.028V385.7C295.028 383.414 293.498 381.92 291.158 381.92C288.818 381.92 287.288 383.414 287.288 385.7V388.4C287.288 390.686 288.818 392.18 291.158 392.18ZM288.872 386.222V385.7C288.872 384.134 289.682 383.27 291.158 383.27C292.634 383.27 293.444 384.134 293.444 385.7V386.222H288.872ZM299.071 386.78H304.831V385.34H299.071V386.78ZM312.708 392.18C315.174 392.18 316.614 390.722 316.614 388.4V387.122C316.614 384.746 315.354 383.342 313.23 383.36C311.934 383.36 311.052 383.864 310.818 384.71H310.746L310.8 380.336H316.146V378.86H309.234L309.144 386.132H310.764C311.07 385.322 311.808 384.782 312.744 384.782C314.238 384.782 314.994 385.628 314.994 387.122V388.4C314.994 389.894 314.238 390.74 312.726 390.74C311.394 390.74 310.62 390.146 310.494 389.12H308.874C309.108 390.992 310.566 392.18 312.708 392.18ZM323.537 392.18C325.949 392.18 327.497 390.65 327.497 388.31V382.55C327.497 380.192 325.967 378.68 323.537 378.68C321.107 378.68 319.577 380.192 319.577 382.55V388.31C319.577 390.668 321.107 392.18 323.537 392.18ZM323.537 390.794C322.097 390.794 321.143 389.768 321.143 388.31V382.55C321.143 381.092 322.097 380.066 323.537 380.066C324.977 380.066 325.931 381.092 325.931 382.55V388.31C325.931 389.768 324.977 390.794 323.537 390.794ZM323.537 386.492C324.185 386.492 324.617 386.042 324.617 385.376C324.617 384.728 324.185 384.296 323.537 384.296C322.889 384.296 322.457 384.728 322.457 385.376C322.457 386.042 322.889 386.492 323.537 386.492ZM334.33 392.18C336.742 392.18 338.29 390.65 338.29 388.31V382.55C338.29 380.192 336.76 378.68 334.33 378.68C331.9 378.68 330.37 380.192 330.37 382.55V388.31C330.37 390.668 331.9 392.18 334.33 392.18ZM334.33 390.794C332.89 390.794 331.936 389.768 331.936 388.31V382.55C331.936 381.092 332.89 380.066 334.33 380.066C335.77 380.066 336.724 381.092 336.724 382.55V388.31C336.724 389.768 335.77 390.794 334.33 390.794ZM334.33 386.492C334.978 386.492 335.41 386.042 335.41 385.376C335.41 384.728 334.978 384.296 334.33 384.296C333.682 384.296 333.25 384.728 333.25 385.376C333.25 386.042 333.682 386.492 334.33 386.492Z" fill="white"/>
<rect x="189" y="378" width="16" height="16" rx="3" fill="#64BCFF"/>
<defs>
<filter id="filter0_d" x="60" y="175" width="360" height="102" filterUnits="userSpaceOnUse" color-interpolation-filters="sRGB">
<feFlood flood-opacity="0" result="BackgroundImageFix"/>
<feColorMatrix in="SourceAlpha" type="matrix" values="0 0 0 0 0 0 0 0 0 0 0 0 0 0 0 0 0 0 127 0"/>
<feOffset dy="1"/>
<feGaussianBlur stdDeviation="1.5"/>
<feColorMatrix type="matrix" values="0 0 0 0 0.0823529 0 0 0 0 0.160784 0 0 0 0 0.352941 0 0 0 0.2 0"/>
<feBlend mode="normal" in2="BackgroundImageFix" result="effect1_dropShadow"/>
<feBlend mode="normal" in="SourceGraphic" in2="effect1_dropShadow" result="shape"/>
</filter>
<filter id="filter1_dd" x="4.5" y="127.5" width="155" height="155" filterUnits="userSpaceOnUse" color-interpolation-filters="sRGB">
<feFlood flood-opacity="0" result="BackgroundImageFix"/>
<feColorMatrix in="SourceAlpha" type="matrix" values="0 0 0 0 0 0 0 0 0 0 0 0 0 0 0 0 0 0 127 0"/>
<feOffset dy="9"/>
<feGaussianBlur stdDeviation="7"/>
<feColorMatrix type="matrix" values="0 0 0 0 0.0875 0 0 0 0 0.112689 0 0 0 0 0.166667 0 0 0 0.05 0"/>
<feBlend mode="normal" in2="BackgroundImageFix" result="effect1_dropShadow"/>
<feColorMatrix in="SourceAlpha" type="matrix" values="0 0 0 0 0 0 0 0 0 0 0 0 0 0 0 0 0 0 127 0"/>
<feOffset dy="4"/>
<feGaussianBlur stdDeviation="3"/>
<feColorMatrix type="matrix" values="0 0 0 0 0.180392 0 0 0 0 0.207843 0 0 0 0 0.266667 0 0 0 0.15 0"/>
<feBlend mode="normal" in2="effect1_dropShadow" result="effect2_dropShadow"/>
<feBlend mode="normal" in="SourceGraphic" in2="effect2_dropShadow" result="shape"/>
</filter>
<filter id="filter2_dd" x="157" y="346" width="215" height="80" filterUnits="userSpaceOnUse" color-interpolation-filters="sRGB">
<feFlood flood-opacity="0" result="BackgroundImageFix"/>
<feColorMatrix in="SourceAlpha" type="matrix" values="0 0 0 0 0 0 0 0 0 0 0 0 0 0 0 0 0 0 127 0"/>
<feOffset/>
<feGaussianBlur stdDeviation="8"/>
<feColorMatrix type="matrix" values="0 0 0 0 0.0509804 0 0 0 0 0.0862745 0 0 0 0 0.176471 0 0 0 0.14 0"/>
<feBlend mode="normal" in2="BackgroundImageFix" result="effect1_dropShadow"/>
<feColorMatrix in="SourceAlpha" type="matrix" values="0 0 0 0 0 0 0 0 0 0 0 0 0 0 0 0 0 0 127 0"/>
<feOffset dy="2"/>
<feGaussianBlur stdDeviation="1"/>
<feColorMatrix type="matrix" values="0 0 0 0 0.0495833 0 0 0 0 0.085936 0 0 0 0 0.175 0 0 0 0.15 0"/>
<feBlend mode="normal" in2="effect1_dropShadow" result="effect2_dropShadow"/>
<feBlend mode="normal" in="SourceGraphic" in2="effect2_dropShadow" result="shape"/>
</filter>
<linearGradient id="paint0_linear" x1="82" y1="134" x2="82" y2="258" gradientUnits="userSpaceOnUse">
<stop stop-color="white"/>
<stop offset="1" stop-color="#F4F5FA"/>
</linearGradient>
</defs>
</svg>
